<svg width="9" height="15" viewBox="0 0 9 15" fill="none" xmlns="http://www.w3.org/2000/svg">
<path fill-rule="evenodd" clip-rule="evenodd" d="M4.51816 2.56003C3.75326 2.30507 2.90996 2.50414 2.33984 3.07426L1.70711 3.70699C1.31658 4.09752 0.683417 4.09752 0.292893 3.70699C-0.0976311 3.31647 -0.0976311 2.6833 0.292893 2.29278L0.925624 1.66005C2.03141 0.554263 3.66705 0.168142 5.15061 0.662664L5.56042 0.799267C8.89867 1.91202 9.22511 6.50537 6.07778 8.07903C5.41724 8.4093 5 9.08441 5 9.82291V9.99989C5 10.5522 4.55228 10.9999 4 10.9999C3.44772 10.9999 3 10.5522 3 9.99989V9.82291C3 8.32687 3.84525 6.95923 5.18335 6.29018C6.73698 5.51336 6.57584 3.24593 4.92796 2.69663L4.51816 2.56003Z" fill="#45E560"/>
<circle cx="4" cy="14" r="1" fill="#45E560"/>
</svg>
